<svg width="32" height="32" viewBox="0 0 32 32" fill="none" xmlns="http://www.w3.org/2000/svg">
<rect width="32" height="32" rx="8" fill="#484D64"/>
<path d="M18.452 10.7208L16.808 7.8906C16.472 7.31213 15.6366 7.31185 15.3001 7.8901L8.25597 19.9976C8.09781 20.2694 8.09828 20.6054 8.2572 20.8768L9.89856 23.6799C10.2357 24.2556 11.0682 24.2549 11.4044 23.6786L18.4513 11.5982C18.6094 11.3272 18.6097 10.9921 18.452 10.7208Z" fill="white"/>
<path d="M17.8724 15.8229H17.5617C16.8911 15.8229 16.4714 16.5482 16.8056 17.1295L20.5642 23.668C20.8974 24.2478 21.7323 24.2521 22.0717 23.6759L23.7398 20.8431C23.9004 20.5704 23.9006 20.232 23.7403 19.959L23.0526 18.7881C21.9737 16.9511 20.0027 15.8229 17.8724 15.8229Z" fill="white"/>
</svg>
