<svg width="24" height="24" viewBox="0 0 24 24" fill="none" xmlns="http://www.w3.org/2000/svg">
<rect width="24" height="24" rx="6" fill="#5021FF"/>
<path fill-rule="evenodd" clip-rule="evenodd" d="M9.57167 9.2649C9.57167 7.94552 10.6412 6.87595 11.9606 6.87595C13.28 6.87595 14.3496 7.94552 14.3496 9.2649C14.3496 10.5843 13.28 11.6539 11.9606 11.6539C10.6412 11.6539 9.57167 10.5843 9.57167 9.2649ZM11.9606 5.87595C10.089 5.87595 8.57167 7.39324 8.57167 9.2649C8.57167 11.1366 10.089 12.6539 11.9606 12.6539C13.8323 12.6539 15.3496 11.1366 15.3496 9.2649C15.3496 7.39324 13.8323 5.87595 11.9606 5.87595ZM8.70496 13.095C8.94218 12.9537 9.01989 12.6468 8.87854 12.4096C8.73718 12.1723 8.43028 12.0946 8.19307 12.236C8.03089 12.3326 7.86832 12.4871 7.72451 12.6521C7.57453 12.8242 7.42111 13.0355 7.28271 13.271C7.01101 13.7335 6.76855 14.3389 6.76855 14.9617C6.76855 15.5159 6.86016 15.9934 7.08339 16.4019C7.30909 16.8151 7.64446 17.1123 8.05272 17.3462C8.42469 17.5593 8.8187 17.7624 9.42875 17.9055C10.0259 18.0456 10.8109 18.124 11.9712 18.124C14.2691 18.124 15.4597 17.8078 16.222 17.0974C16.9216 16.4455 17.2334 15.7406 17.2315 14.9605C17.2303 14.4381 16.9955 13.8621 16.7364 13.4045C16.4762 12.945 16.1319 12.5009 15.8157 12.2649C15.5944 12.0997 15.2811 12.1451 15.1159 12.3664C14.9507 12.5877 14.9962 12.901 15.2174 13.0662C15.3758 13.1844 15.638 13.4943 15.8662 13.8972C16.0955 14.3021 16.2309 14.6971 16.2315 14.9629C16.2326 15.4283 16.0645 15.8773 15.5403 16.3658C15.0787 16.7959 14.2387 17.124 11.9712 17.124C10.8487 17.124 10.1491 17.0474 9.65713 16.932C9.17808 16.8196 8.8785 16.6669 8.54983 16.4785C8.25744 16.311 8.07645 16.1339 7.96096 15.9225C7.84299 15.7066 7.76855 15.4094 7.76855 14.9617C7.76855 14.5827 7.92303 14.1552 8.1449 13.7776C8.25329 13.5931 8.37082 13.4326 8.47843 13.3091C8.5922 13.1785 8.67384 13.1136 8.70496 13.095Z" fill="white"/>
</svg>
