<svg width="32" height="32" viewBox="0 0 32 32" fill="none" xmlns="http://www.w3.org/2000/svg">
<g clip-path="url(#clip0_2758_44653)">
<path d="M2.41421 0.585786C2.78929 0.210714 3.29799 0 3.82843 0H30C31.1046 0 32 0.89543 32 2V26.6716C32 27.202 31.7893 27.7107 31.4142 28.0858L28.0858 31.4142C27.7107 31.7893 27.202 32 26.6716 32H2C0.89543 32 0 31.1046 0 30V3.82843C0 3.29799 0.210714 2.78929 0.585787 2.41421L2.41421 0.585786Z" fill="#FEC3D0"/>
<path d="M17.675 11.075L16.075 8.375C15.775 7.875 15.075 7.875 14.675 8.375L8.075 19.875C7.975 20.175 7.975 20.475 8.075 20.675L9.675 23.375C9.975 23.875 10.775 23.875 11.075 23.375L17.675 11.875C17.875 11.675 17.875 11.375 17.675 11.075Z" fill="#FA1E4E"/>
<path d="M17.1762 15.875H16.8762C16.2762 15.875 15.8762 16.575 16.1762 17.075L19.7762 23.275C20.0762 23.775 20.8762 23.875 21.1762 23.275L22.7762 20.575C22.9762 20.275 22.9762 19.975 22.7762 19.775L22.0762 18.675C21.0762 16.975 19.1762 15.875 17.1762 15.875Z" fill="#FA1E4E"/>
</g>
<defs>
<clipPath id="clip0_2758_44653">
<rect width="32" height="32" fill="white"/>
</clipPath>
</defs>
</svg>
